# xmcd CD database file
# Copyright (C) 1993-1998 Ti Kan
#
# Track frame offsets:
#  182
#  17577
#  32527
#  45472
#  60665
#  79242
#  95717
#  107805
#  134600
#  156237
#  180830
#  201370
#  220002
#  239215
#
# Disc length: 3443 seconds
#
# Revision: 1
# Processed by: cddbd v1.4b41PL1 Copyright (c) Steve Scherf et al.
# Submitted via: CDWizzard Release:4.35
#
DISCID=c00d710e
DTITLE=Many - Wonderful tonight (2)
DYEAR=1900
DGENRE=
TTITLE0=How you gonna see me now
TTITLE1=Dust in the wind
TTITLE2=Tequila Sunrise
TTITLE3=How long
TTITLE4=I should have known better
TTITLE5=Hurts to be in love
TTITLE6=You are so beautiful
TTITLE7=I'm not in love
TTITLE8=I hear you now
TTITLE9=Black Pearl
TTITLE10=you're a lady
TTITLE11=Baby come back
TTITLE12=Dreamweaver
TTITLE13=Give up your guns
EXTD=
EXTT0=Alice Cooper
EXTT1=Kansas
EXTT2=Eagles
EXTT3=Ace
EXTT4=Jim Diamond
EXTT5=Gino Vannelli
EXTT6=Joe Cocker
EXTT7=10 CC
EXTT8=Jon and Vangelis
EXTT9=Margriet Eshuys Band
EXTT10=Peter Skellern
EXTT11=Player
EXTT12=Gary Wright
EXTT13=Buoys
PLAYORDER=
